<svg id="svg" version="1.1" xmlns="http://www.w3.org/2000/svg" xmlns:xlink="http://www.w3.org/1999/xlink" width="400" height="400" viewBox="0, 0, 400,400"><g id="svgg"><path id="path0" d="M0.000 200.000 L 0.000 400.000 200.000 400.000 L 400.000 400.000 400.000 200.000 L 400.000 0.000 200.000 0.000 L 0.000 0.000 0.000 200.000 M164.133 121.236 C 166.076 121.474,168.776 122.000,170.133 122.406 C 182.938 126.231,187.591 128.041,190.275 130.240 C 192.527 132.086,194.973 133.127,204.242 136.189 C 217.303 140.503,219.466 142.473,221.991 152.364 C 224.587 162.532,237.692 187.096,247.203 199.621 C 251.740 205.595,252.618 208.430,250.952 211.720 C 248.576 216.411,244.073 217.037,231.950 214.361 C 230.053 213.943,227.970 213.600,227.322 213.600 C 223.798 213.600,220.795 211.534,216.772 206.341 C 211.451 199.474,211.589 199.498,207.137 204.673 C 188.299 226.571,165.232 232.637,134.524 223.770 C 120.131 219.614,108.010 204.684,105.333 187.815 C 100.588 157.910,122.870 125.762,151.200 121.639 C 152.850 121.399,154.650 121.136,155.200 121.056 C 157.291 120.749,160.727 120.818,164.133 121.236 M170.144 143.607 C 145.743 146.933,130.330 182.455,144.853 201.894 C 147.532 205.481,150.041 206.025,155.276 204.156 C 167.487 199.796,177.346 190.933,182.887 179.333 C 186.340 172.105,186.126 171.183,180.763 170.175 C 169.814 168.118,167.504 159.401,174.992 148.400 C 178.137 143.780,177.015 142.671,170.144 143.607 " stroke="none" fill="#fbfbfb" fill-rule="evenodd"></path><path id="path1" d="M150.800 126.203 C 119.496 132.557,99.659 171.600,113.644 199.335 C 121.383 214.684,134.187 222.075,153.200 222.171 C 169.324 222.252,194.237 207.463,194.993 197.362 C 195.130 195.526,198.821 185.920,200.242 183.700 C 201.196 182.211,202.296 182.548,202.854 184.500 C 203.507 186.782,203.817 187.120,205.740 187.638 C 207.999 188.246,211.625 192.163,218.695 201.634 C 224.335 209.190,225.948 209.953,232.950 208.381 C 234.958 207.930,237.005 207.476,237.500 207.373 C 239.784 206.895,238.627 204.114,232.604 195.600 C 223.387 182.570,213.109 163.069,209.741 152.219 C 207.603 145.329,207.250 144.787,203.258 142.271 C 193.254 135.964,189.020 135.700,185.342 141.151 C 184.804 141.948,182.992 144.580,181.314 147.000 C 172.556 159.632,173.094 164.724,183.317 165.953 C 191.740 166.965,192.337 170.114,186.397 182.200 C 180.396 194.409,169.763 203.758,156.600 208.395 C 144.603 212.622,135.261 207.756,128.195 193.600 C 127.372 191.950,125.998 189.718,125.143 188.640 C 117.838 179.433,124.722 155.905,136.414 150.120 C 137.836 149.417,140.620 147.663,142.600 146.223 C 150.488 140.487,155.959 138.651,167.017 138.027 C 178.825 137.360,182.278 135.313,178.045 131.488 C 172.590 126.560,160.549 124.224,150.800 126.203 " stroke="none" fill="#7b7b7b" fill-rule="evenodd"></path><path id="path2" d="M151.039 123.443 C 114.012 130.129,93.793 178.157,115.615 207.588 C 122.690 217.130,129.073 221.008,142.200 223.739 C 158.839 227.200,168.820 226.197,181.638 219.776 C 190.840 215.167,199.102 208.332,205.770 199.813 C 209.083 195.580,211.220 196.171,216.204 202.701 C 221.920 210.189,223.464 211.287,229.200 211.945 C 231.290 212.185,234.260 212.572,235.800 212.805 C 247.690 214.605,250.215 209.559,242.610 199.200 C 232.880 185.948,221.277 164.200,217.971 153.019 C 215.223 143.725,213.417 141.853,203.726 138.256 C 201.127 137.291,197.740 136.035,196.200 135.464 C 194.660 134.894,192.130 134.064,190.578 133.620 C 188.609 133.057,187.037 132.254,185.378 130.965 C 177.482 124.829,162.065 121.451,151.039 123.443 M164.318 123.613 C 167.677 124.035,169.015 124.411,176.363 127.004 C 181.391 128.777,183.162 129.895,185.001 132.454 C 186.394 134.393,186.407 134.400,188.699 134.405 C 191.775 134.411,193.727 134.981,202.087 138.314 C 212.230 142.358,212.512 142.650,215.574 152.262 C 218.983 162.966,230.839 185.149,239.444 196.925 C 246.952 207.201,246.160 213.246,237.429 212.291 C 234.000 211.916,227.346 211.132,226.157 210.962 C 224.096 210.669,221.552 208.629,218.621 204.918 C 217.093 202.983,215.224 200.621,214.468 199.668 C 212.862 197.644,207.988 194.267,206.959 194.465 C 206.568 194.540,205.159 196.221,203.826 198.201 C 200.295 203.446,192.145 211.483,186.644 215.146 C 170.619 225.816,158.479 227.467,136.637 221.950 C 111.328 215.556,99.574 182.852,112.647 155.200 C 122.822 133.679,143.548 121.009,164.318 123.613 M168.400 140.819 C 137.564 143.612,119.843 185.341,141.425 204.338 C 151.242 212.980,174.417 201.018,183.999 182.364 C 189.882 170.911,189.475 169.055,180.800 167.771 C 171.777 166.435,170.582 158.978,177.718 148.553 C 183.364 140.307,182.449 139.547,168.400 140.819 M179.226 141.614 C 180.620 142.360,180.142 143.951,177.171 148.443 C 169.624 159.858,171.231 166.879,181.750 168.444 C 188.305 169.419,188.750 171.331,184.477 180.169 C 179.476 190.515,172.220 197.936,162.000 203.157 C 149.397 209.596,143.254 208.132,138.053 197.452 C 127.512 175.802,144.434 144.178,168.000 141.488 C 171.049 141.140,178.497 141.224,179.226 141.614 " stroke="none" fill="#cbcbcb" fill-rule="evenodd"></path><path id="path3" d="M153.300 124.398 C 109.047 130.649,91.350 193.828,127.330 217.111 C 136.258 222.888,156.157 225.680,167.000 222.678 C 180.852 218.842,195.624 207.543,203.184 195.000 C 204.946 192.078,205.764 191.200,206.725 191.200 C 207.595 191.200,213.781 197.391,216.518 201.000 C 222.942 209.475,224.230 210.400,229.594 210.400 C 231.431 210.400,234.065 210.597,235.447 210.838 C 243.921 212.313,244.687 207.048,237.427 197.237 C 228.110 184.645,216.460 162.789,213.023 151.449 C 211.225 145.516,210.747 144.433,209.349 143.122 C 208.259 142.099,199.493 138.019,194.837 136.367 C 189.401 134.439,184.411 136.604,182.654 141.656 C 182.243 142.835,180.470 145.934,178.713 148.543 C 171.060 159.901,172.250 165.784,182.486 167.203 C 190.128 168.263,190.604 170.900,185.143 181.935 C 177.022 198.345,155.522 211.963,144.488 207.686 C 128.659 201.550,125.052 176.131,137.382 157.600 C 145.661 145.157,154.658 140.448,171.669 139.656 C 181.841 139.182,183.203 138.571,183.199 134.481 C 183.195 131.221,181.822 130.153,173.400 126.862 C 167.068 124.387,159.738 123.489,153.300 124.398 M167.000 126.200 C 172.403 127.330,179.600 131.673,179.600 133.802 C 179.600 136.495,176.661 137.482,167.017 138.027 C 155.959 138.651,150.488 140.487,142.600 146.223 C 140.620 147.663,137.836 149.417,136.414 150.120 C 124.722 155.905,117.838 179.433,125.143 188.640 C 125.998 189.718,127.372 191.950,128.195 193.600 C 135.261 207.756,144.603 212.622,156.600 208.395 C 169.763 203.758,180.396 194.409,186.397 182.200 C 192.337 170.114,191.740 166.965,183.317 165.953 C 173.094 164.724,172.556 159.632,181.314 147.000 C 182.992 144.580,184.804 141.948,185.342 141.151 C 189.020 135.700,193.254 135.964,203.258 142.271 C 207.250 144.787,207.603 145.329,209.741 152.219 C 213.109 163.069,223.387 182.570,232.604 195.600 C 238.627 204.114,239.784 206.895,237.500 207.373 C 237.005 207.476,234.958 207.930,232.950 208.381 C 225.948 209.953,224.335 209.190,218.695 201.634 C 211.625 192.163,207.999 188.246,205.740 187.638 C 203.817 187.120,203.507 186.782,202.854 184.500 C 202.296 182.548,201.196 182.211,200.242 183.700 C 198.821 185.920,195.130 195.526,194.993 197.362 C 194.237 207.463,169.324 222.252,153.200 222.171 C 136.789 222.088,124.444 216.236,116.884 204.955 C 93.726 170.401,127.158 117.864,167.000 126.200 " stroke="none" fill="#acacac" fill-rule="evenodd"></path><path id="path4" d="M157.491 123.889 C 158.201 123.977,159.461 123.979,160.291 123.892 C 161.121 123.805,160.540 123.733,159.000 123.731 C 157.460 123.729,156.781 123.800,157.491 123.889 M153.100 124.282 C 153.595 124.378,154.405 124.378,154.900 124.282 C 155.395 124.187,154.990 124.109,154.000 124.109 C 153.010 124.109,152.605 124.187,153.100 124.282 M163.100 124.282 C 163.595 124.378,164.405 124.378,164.900 124.282 C 165.395 124.187,164.990 124.109,164.000 124.109 C 163.010 124.109,162.605 124.187,163.100 124.282 M146.400 125.583 C 143.494 126.554,144.304 126.575,147.600 125.614 C 149.030 125.198,149.840 124.855,149.400 124.853 C 148.960 124.851,147.610 125.179,146.400 125.583 M172.625 126.567 C 173.738 127.074,175.358 127.718,176.225 127.999 C 180.993 129.544,183.196 131.591,183.199 134.481 C 183.203 138.571,181.841 139.182,171.669 139.656 C 167.370 139.856,162.668 140.267,161.220 140.569 C 137.408 145.534,122.232 176.743,133.681 197.200 C 137.220 203.523,143.282 208.494,147.304 208.373 C 147.797 208.358,147.377 208.124,146.372 207.853 C 132.248 204.045,126.262 180.850,134.900 163.400 C 143.081 146.873,154.074 140.618,176.300 139.843 L 182.000 139.644 182.000 141.042 C 182.000 142.793,181.456 143.852,177.545 149.718 C 175.815 152.313,174.402 154.653,174.405 154.918 C 174.407 155.183,174.822 154.679,175.326 153.798 C 175.830 152.917,177.508 150.307,179.055 147.998 C 180.602 145.689,182.104 143.170,182.394 142.400 C 183.564 139.286,184.083 138.543,185.997 137.239 C 187.506 136.211,188.606 135.809,190.497 135.594 L 193.000 135.309 190.750 135.255 C 189.513 135.225,187.739 135.469,186.808 135.797 C 184.763 136.519,184.568 136.423,184.211 134.518 C 183.571 131.106,181.875 129.540,176.991 127.847 C 175.456 127.315,173.531 126.592,172.713 126.240 C 170.417 125.252,170.342 125.529,172.625 126.567 M140.258 127.781 C 129.887 132.309,120.765 141.102,114.262 152.838 C 113.458 154.290,112.800 155.640,112.801 155.838 C 112.801 156.037,113.662 154.666,114.714 152.791 C 121.938 139.913,129.749 132.812,143.200 126.894 C 143.750 126.652,144.020 126.444,143.800 126.432 C 143.580 126.420,141.986 127.027,140.258 127.781 M194.400 136.200 C 196.226 136.903,196.945 136.893,195.400 136.186 C 194.740 135.883,193.930 135.642,193.600 135.648 C 193.270 135.655,193.630 135.903,194.400 136.200 M197.286 137.189 C 197.663 137.428,200.270 138.615,203.079 139.826 C 210.349 142.961,210.506 143.145,213.023 151.449 C 216.460 162.789,228.110 184.645,237.427 197.237 C 244.687 207.048,243.921 212.313,235.447 210.838 C 234.065 210.597,231.419 210.429,229.567 210.465 L 226.200 210.529 229.800 210.817 C 231.780 210.976,234.840 211.229,236.600 211.381 C 244.817 212.088,245.577 206.813,238.587 197.583 C 229.316 185.340,216.933 162.041,213.579 150.528 C 211.431 143.155,210.892 142.581,203.086 139.344 C 196.889 136.774,196.269 136.544,197.286 137.189 M112.065 157.417 C 111.395 158.888,111.523 159.202,112.247 157.865 C 112.586 157.240,112.788 156.654,112.696 156.563 C 112.605 156.471,112.321 156.856,112.065 157.417 M110.444 161.655 C 109.980 163.030,109.613 164.345,109.630 164.578 C 109.646 164.810,110.095 163.754,110.627 162.230 C 111.159 160.707,111.526 159.392,111.441 159.308 C 111.357 159.224,110.909 160.280,110.444 161.655 M173.618 161.022 C 173.567 163.379,177.739 167.262,180.226 167.172 C 180.652 167.157,180.190 166.885,179.200 166.568 C 176.562 165.724,175.103 164.313,174.172 161.704 C 173.835 160.760,173.629 160.506,173.618 161.022 M181.905 167.483 C 182.402 167.579,183.122 167.575,183.505 167.475 C 183.887 167.375,183.480 167.296,182.600 167.301 C 181.720 167.305,181.407 167.387,181.905 167.483 M185.475 168.041 C 187.606 168.658,188.520 170.209,188.280 172.800 C 188.154 174.162,188.203 174.695,188.410 174.200 C 189.674 171.171,187.694 167.487,184.881 167.636 C 184.507 167.656,184.774 167.838,185.475 168.041 M108.093 172.000 C 108.093 172.770,108.175 173.085,108.276 172.700 C 108.376 172.315,108.376 171.685,108.276 171.300 C 108.175 170.915,108.093 171.230,108.093 172.000 M107.760 179.400 C 107.761 182.700,107.822 183.997,107.898 182.282 C 107.973 180.567,107.972 177.867,107.897 176.282 C 107.821 174.697,107.759 176.100,107.760 179.400 M187.385 176.070 C 187.227 176.581,186.312 178.710,185.352 180.800 C 184.392 182.890,183.864 184.266,184.178 183.858 C 184.977 182.820,188.116 175.583,187.873 175.340 C 187.763 175.230,187.543 175.558,187.385 176.070 M181.600 187.500 C 178.113 192.819,170.690 199.437,163.800 203.368 C 162.040 204.372,160.751 205.195,160.935 205.197 C 164.686 205.230,179.989 191.806,183.161 185.700 C 184.022 184.042,183.385 184.776,181.600 187.500 M108.028 186.721 C 107.996 187.783,109.205 193.329,109.421 193.112 C 109.501 193.032,109.226 191.355,108.811 189.384 C 108.396 187.413,108.044 186.214,108.028 186.721 M205.513 191.700 C 205.160 191.975,204.113 193.460,203.184 195.000 C 193.153 211.641,174.549 223.244,156.800 223.929 C 151.221 224.145,150.664 224.218,153.200 224.406 C 171.208 225.737,191.049 214.661,203.204 196.493 C 204.949 193.884,206.090 192.560,206.662 192.478 C 207.696 192.330,213.593 197.465,215.603 200.264 C 220.133 206.572,223.894 210.401,225.560 210.400 C 225.912 210.400,225.438 210.022,224.506 209.561 C 222.742 208.688,220.629 206.423,216.518 201.000 C 213.781 197.391,207.595 191.200,206.725 191.200 C 206.410 191.200,205.865 191.425,205.513 191.700 M110.229 195.600 C 110.376 196.150,110.664 196.870,110.867 197.200 C 111.125 197.617,111.157 197.495,110.971 196.800 C 110.824 196.250,110.536 195.530,110.333 195.200 C 110.075 194.783,110.043 194.905,110.229 195.600 M111.206 198.210 C 111.155 201.919,122.744 215.269,128.700 218.361 C 130.470 219.280,129.556 218.486,127.100 216.972 C 122.196 213.949,116.460 207.442,112.844 200.800 C 111.946 199.150,111.209 197.984,111.206 198.210 M158.800 205.800 C 158.250 206.114,157.980 206.372,158.200 206.372 C 158.420 206.372,159.050 206.114,159.600 205.800 C 160.150 205.486,160.420 205.228,160.200 205.228 C 159.980 205.228,159.350 205.486,158.800 205.800 M155.000 207.234 C 153.900 207.659,153.520 207.905,154.156 207.781 C 155.414 207.537,158.050 206.466,157.400 206.464 C 157.180 206.463,156.100 206.809,155.000 207.234 M131.308 219.594 C 132.268 220.210,136.373 221.604,137.163 221.582 C 137.513 221.572,136.540 221.145,135.000 220.633 C 133.460 220.121,131.840 219.575,131.400 219.421 C 130.678 219.167,130.669 219.184,131.308 219.594 M138.800 222.000 C 139.350 222.176,140.160 222.320,140.600 222.320 C 141.233 222.320,141.192 222.254,140.400 222.000 C 139.850 221.824,139.040 221.680,138.600 221.680 C 137.967 221.680,138.008 221.746,138.800 222.000 M146.600 223.600 C 147.260 223.768,148.340 223.906,149.000 223.907 C 150.009 223.908,149.945 223.855,148.600 223.577 C 146.574 223.158,144.937 223.177,146.600 223.600 " stroke="none" fill="#b4b4b4" fill-rule="evenodd"></path><path id="path5" d="M153.283 123.628 C 116.285 128.434,94.416 175.983,115.272 206.279 C 122.487 216.760,128.925 220.539,145.200 223.846 C 167.269 228.330,190.335 218.240,203.826 198.201 C 205.159 196.221,206.568 194.540,206.959 194.465 C 207.988 194.267,212.862 197.644,214.468 199.668 C 215.224 200.621,217.093 202.983,218.621 204.918 C 221.552 208.629,224.096 210.669,226.157 210.962 C 227.346 211.132,234.000 211.916,237.429 212.291 C 246.160 213.246,246.952 207.201,239.444 196.925 C 230.839 185.149,218.983 162.966,215.574 152.262 C 212.512 142.650,212.230 142.358,202.087 138.314 C 193.727 134.981,191.775 134.411,188.699 134.405 C 186.407 134.400,186.394 134.393,185.001 132.454 C 182.787 129.372,180.806 128.366,169.907 124.781 C 165.579 123.357,158.924 122.896,153.283 123.628 M163.697 124.007 C 167.211 124.410,169.899 125.176,176.640 127.698 C 182.164 129.765,183.554 131.017,184.211 134.518 C 184.571 136.440,184.733 136.511,186.991 135.741 C 190.338 134.601,192.854 135.105,201.283 138.607 C 211.134 142.699,211.363 142.921,213.579 150.528 C 216.933 162.041,229.316 185.340,238.587 197.583 C 245.499 206.710,244.807 212.065,236.800 211.409 C 235.150 211.274,231.865 211.016,229.500 210.835 C 223.570 210.381,222.612 209.682,216.287 201.200 C 213.437 197.377,207.842 192.309,206.659 192.478 C 206.091 192.560,204.944 193.892,203.204 196.493 C 190.805 215.027,170.975 225.883,152.350 224.334 C 134.500 222.849,123.923 217.632,115.903 206.357 C 91.951 172.680,122.912 119.334,163.697 124.007 M172.600 140.006 C 153.934 140.815,142.598 147.849,134.900 163.400 C 126.858 179.646,131.199 200.626,143.895 206.877 C 154.684 212.188,176.779 198.510,184.993 181.436 C 189.672 171.710,189.478 168.510,184.165 167.809 C 172.220 166.235,170.267 160.432,177.892 149.161 C 182.693 142.063,183.386 139.541,180.500 139.664 C 179.675 139.700,176.120 139.853,172.600 140.006 M180.174 140.790 C 182.000 141.484,181.520 143.001,177.718 148.553 C 170.582 158.978,171.777 166.435,180.800 167.771 C 189.475 169.055,189.882 170.911,183.999 182.364 C 179.405 191.307,171.138 199.248,161.313 204.155 C 150.004 209.803,143.554 208.625,137.677 199.838 C 122.515 177.169,140.103 143.382,168.400 140.819 C 173.455 140.362,179.011 140.348,180.174 140.790 " stroke="none" fill="#bcbcbc" fill-rule="evenodd"></path><path id="path6" d="M151.169 123.021 C 114.475 129.665,93.848 176.024,114.132 206.257 C 122.320 218.460,131.657 223.260,152.600 226.031 C 170.730 228.429,192.097 218.675,206.289 201.521 C 210.540 196.384,210.537 196.383,218.285 205.987 C 221.849 210.405,223.477 211.534,227.025 212.048 C 228.551 212.269,231.330 212.710,233.200 213.028 C 247.346 215.431,252.318 211.494,246.225 202.711 C 235.843 187.745,233.804 184.426,228.214 173.400 C 223.398 163.902,220.633 157.518,219.237 152.674 C 216.261 142.352,215.214 141.589,193.860 134.191 C 191.678 133.435,188.556 131.954,186.860 130.869 C 176.369 124.161,162.145 121.033,151.169 123.021 M165.600 123.221 C 171.801 124.211,181.648 128.066,185.378 130.965 C 187.037 132.254,188.609 133.057,190.578 133.620 C 192.130 134.064,194.660 134.894,196.200 135.464 C 210.950 140.929,210.707 140.816,213.118 143.256 C 215.231 145.394,216.430 147.805,217.971 153.019 C 221.277 164.200,232.880 185.948,242.610 199.200 C 250.215 209.559,247.690 214.605,235.800 212.805 C 234.260 212.572,231.290 212.185,229.200 211.945 C 223.464 211.287,221.920 210.189,216.204 202.701 C 211.220 196.171,209.083 195.580,205.770 199.813 C 192.025 217.373,171.531 227.443,153.306 225.591 C 134.069 223.636,123.920 218.789,115.615 207.588 C 89.802 172.774,123.173 116.450,165.600 123.221 M168.000 141.488 C 144.434 144.178,127.512 175.802,138.053 197.452 C 143.254 208.132,149.397 209.596,162.000 203.157 C 172.220 197.936,179.476 190.515,184.477 180.169 C 188.750 171.331,188.305 169.419,181.750 168.444 C 171.231 166.879,169.624 159.858,177.171 148.443 C 180.142 143.951,180.620 142.360,179.226 141.614 C 178.497 141.224,171.049 141.140,168.000 141.488 M179.060 142.614 C 179.713 143.508,179.242 144.686,176.827 148.200 C 168.979 159.618,170.807 167.022,181.954 168.968 C 187.074 169.862,187.742 171.080,185.855 176.091 C 180.672 189.860,169.180 200.938,155.230 205.611 C 147.511 208.197,143.477 206.150,139.438 197.600 C 130.418 178.502,142.825 149.981,163.089 143.228 C 168.174 141.534,177.994 141.156,179.060 142.614 " stroke="none" fill="#d4d4d4" fill-rule="evenodd"></path><path id="path7" d="M150.200 122.792 C 114.005 130.080,93.723 175.665,113.307 205.710 C 121.514 218.300,129.732 222.822,150.600 226.228 C 169.648 229.338,191.873 220.204,205.785 203.550 C 210.673 197.699,211.352 197.666,215.410 203.076 C 221.003 210.532,223.183 212.107,228.830 212.772 C 230.683 212.990,232.788 213.344,233.507 213.559 C 236.589 214.477,244.913 214.563,246.618 213.693 C 251.451 211.227,251.061 207.587,245.106 199.574 C 235.507 186.658,223.604 164.192,220.340 152.832 C 217.559 143.154,215.617 141.348,203.400 137.079 C 193.986 133.790,190.722 132.461,188.610 131.059 C 177.961 123.989,161.671 120.483,150.200 122.792 M166.400 122.964 C 172.658 124.081,181.721 127.583,186.860 130.869 C 188.556 131.954,191.678 133.435,193.860 134.191 C 215.214 141.589,216.261 142.352,219.237 152.674 C 220.633 157.518,223.398 163.902,228.214 173.400 C 233.804 184.426,235.843 187.745,246.225 202.711 C 252.318 211.494,247.346 215.431,233.200 213.028 C 231.330 212.710,228.551 212.269,227.025 212.048 C 223.477 211.534,221.849 210.405,218.285 205.987 C 210.537 196.383,210.540 196.384,206.289 201.521 C 192.097 218.675,170.730 228.429,152.600 226.031 C 134.621 223.652,126.292 220.220,118.818 212.108 C 104.223 196.269,101.981 173.903,112.867 152.753 C 123.858 131.399,145.670 119.261,166.400 122.964 M168.289 142.024 C 142.995 145.525,127.203 182.515,142.405 202.653 C 145.534 206.798,149.178 207.639,155.230 205.611 C 169.180 200.938,180.672 189.860,185.855 176.091 C 187.742 171.080,187.074 169.862,181.954 168.968 C 170.807 167.022,168.979 159.618,176.827 148.200 C 180.602 142.708,180.382 142.017,174.786 141.797 C 172.704 141.715,169.780 141.817,168.289 142.024 M178.419 143.023 C 179.034 143.764,178.424 145.067,174.978 150.375 C 168.759 159.954,171.414 167.766,181.394 169.250 C 186.974 170.080,187.469 171.458,184.591 178.146 C 179.532 189.904,169.472 199.630,157.402 204.433 C 148.630 207.923,144.754 206.470,140.641 198.151 C 130.641 177.927,145.224 147.313,167.000 142.818 C 170.057 142.187,177.841 142.327,178.419 143.023 " stroke="none" fill="#dcdcdc" fill-rule="evenodd"></path><path id="path8" d="M155.200 121.056 C 154.650 121.136,152.850 121.399,151.200 121.639 C 122.870 125.762,100.588 157.910,105.333 187.815 C 108.010 204.684,120.131 219.614,134.524 223.770 C 165.232 232.637,188.299 226.571,207.137 204.673 C 211.589 199.498,211.451 199.474,216.772 206.341 C 220.795 211.534,223.798 213.600,227.322 213.600 C 227.970 213.600,230.053 213.943,231.950 214.361 C 244.073 217.037,248.576 216.411,250.952 211.720 C 252.618 208.430,251.740 205.595,247.203 199.621 C 237.692 187.096,224.587 162.532,221.991 152.364 C 219.466 142.473,217.303 140.503,204.242 136.189 C 194.973 133.127,192.527 132.086,190.275 130.240 C 187.591 128.041,182.938 126.231,170.133 122.406 C 166.002 121.172,158.827 120.523,155.200 121.056 M165.923 122.416 C 172.051 123.410,183.873 127.914,188.610 131.059 C 190.722 132.461,193.986 133.790,203.400 137.079 C 215.617 141.348,217.559 143.154,220.340 152.832 C 223.604 164.192,235.507 186.658,245.106 199.574 C 251.061 207.587,251.451 211.227,246.618 213.693 C 244.913 214.563,236.589 214.477,233.507 213.559 C 232.788 213.344,230.683 212.990,228.830 212.772 C 223.183 212.107,221.003 210.532,215.410 203.076 C 211.352 197.666,210.673 197.699,205.785 203.550 C 191.873 220.204,169.648 229.338,150.600 226.228 C 129.732 222.822,121.514 218.300,113.307 205.710 C 89.855 169.731,124.037 115.619,165.923 122.416 M167.000 142.818 C 145.224 147.313,130.641 177.927,140.641 198.151 C 144.754 206.470,148.630 207.923,157.402 204.433 C 169.472 199.630,179.532 189.904,184.591 178.146 C 187.469 171.458,186.974 170.080,181.394 169.250 C 171.414 167.766,168.759 159.954,174.978 150.375 C 180.092 142.498,180.066 142.380,173.251 142.444 C 170.693 142.468,167.880 142.636,167.000 142.818 M176.678 144.068 C 177.297 144.578,176.901 145.595,174.992 148.400 C 167.504 159.401,169.814 168.118,180.763 170.175 C 186.126 171.183,186.340 172.105,182.887 179.333 C 177.346 190.933,167.487 199.796,155.276 204.156 C 150.041 206.025,147.532 205.481,144.853 201.894 C 133.148 186.226,140.425 158.801,159.278 147.535 C 165.112 144.049,174.405 142.198,176.678 144.068 " stroke="none" fill="#e4e4e4" fill-rule="evenodd"></path></g></svg>